<svg xmlns="http://www.w3.org/2000/svg" fill="none" viewBox="0 0 80 32">
  <path fill="#fff" d="M5 13H0c0-1.4.9-2.2 2.3-2.3H5c.5 0 .7-.2.9-.7l1.5-6a4.7 4.7 0 0 1 2.5-3 7.3 7.3 0 0 1 4.8-.8c2.4.4 3.7 1.9 3 4.5l-3 12.8c-.2.6-.4 1.2.4 1.5l-.5 2-2.4-.3c-1-.2-1.6-1.4-1.3-2.6.3-1.7.7-3.3 1.2-5H8.9l-.4.6L7 20.2l-.1.6H3.2l1.9-7.7Zm4.2-2.3h2.9c.4 0 .6-.1.6-.5.5-1.8 1-3.6 1.3-5.3l.3-1.7c0-1-.6-1.5-1.5-1.3-1 .2-1.5.8-1.7 1.6l-1 4-.9 3.2ZM26.2 6.5H36L35 11l-1.7 6.3c-.1.7-.1 1.3.6 1.6l.2.5-.5 1.6c-.9-.2-1.8-.3-2.6-.6-1.3-.4-1.8-1.5-1.5-2.9l2.1-8.3.2-.8h-2.5l-1.2 5c-.9 3.7-3 6.2-6.5 7.2-1.6.4-3.4.3-5.3.4l3.4-14.6h3.7l-3 12.6c1.2 0 2-.6 2.8-1.5.3-.4.6-1 .7-1.6.8-2.9 1.4-5.8 2.1-8.8l.2-.6ZM49.6 6.5l-2.4 10.2-.2.8c-.2.7-.2 1.3.7 1.5 0 .7-.2 1.2-.4 1.9-1.4 0-2.8.1-3.8-1.2a5.2 5.2 0 0 1-4.1 1.1c-1.7-.2-3-1.2-3.2-2.6-.1-.7 0-1.5.2-2.2l1.2-5c.6-2.5 2.3-4.3 4.8-4.5h7.2Zm-4 1.7h-2.1c-1.3 0-1.7.3-2 1.5-.7 2.6-1.3 5.1-1.8 7.7-.3 1 .5 1.8 1.5 1.6 1.2-.2 2-1 2.3-2l2.1-8.8ZM64.2 6.4c1 0 2 .2 3 .9.8.7 1.3 1.6 1 2.8-.5 2.3-1 4.7-1.7 7-.6 2.1-2.9 3.6-5.4 3.8-1.2 0-2.4 0-3.4-.8-1-.7-1.4-1.7-1.2-3l1.6-6.7c.7-2.5 3.1-4 6-4Zm.5 3.4c0-.6 0-1.1-.7-1.4-.6-.3-1.2 0-1.6.5l-.6 1.2-1.3 5.4c-.2.7-.4 1.5-.4 2.3 0 1 1 1.5 1.8.9.4-.3.8-.8 1-1.3l.7-2.8 1.1-4.8ZM52.5 8h-1.7v-.4c.4-1.3.4-1.3 1.7-1.4.4 0 .6-.2.6-.6l.7-2.7h3.5a839 839 0 0 1-.8 3.3h1.6l-.4 1.6-.8.2c-.6 0-.8.1-1 .8l-2 8c-.2 1 0 1.2.9 1.7l-.5 1.9c-.8-.1-1.7-.1-2.5-.4-1.3-.3-1.8-1.7-1.4-3.4l1.9-7.5.2-1.1ZM68 20.2l1.4-6 1.9-7.5c.1-.5.3-.7.8-.7h3l-.2 1.2C76.5 6 78.2 5.9 80 6l-.9 3.4c0 .2-.3.3-.4.3H77l.4-1.9c-.6.4-1.1.6-1.5 1-1.8 1.2-2.4 3.1-3 5.2-.3 1.9-.8 3.7-1.3 5.6 0 .2-.3.4-.4.4h-3.4ZM40 25h10.5c.6 0 1.2.1 1.3.9.2.6-.2 1.2-.8 1.4H29.6c-.4 0-.9-.2-1.1-.5-.3-.2-.3-.9-.1-1.2.1-.3.6-.6 1-.6H40ZM40 29h6.5c1 0 1.4.5 1.4 1.2s-.5 1.1-1.4 1.1h-13c-.6 0-1.2-.1-1.3-.9-.2-.7.3-1.3 1.2-1.3H40ZM33.4 2.2c0-1.1 1-2.2 2.2-2.2.8 0 1.5.7 1.5 1.5 0 1.2-1 2.3-2.2 2.3-.9 0-1.5-.6-1.5-1.6Z"/>
</svg>
